<svg width="21" height="21" viewBox="0 0 21 21" fill="none" xmlns="http://www.w3.org/2000/svg">
<path d="M18.0291 13.1508L16.7204 11.8421C16.6873 11.809 16.6989 11.7536 16.7412 11.7351C17.2034 11.5356 17.6355 11.2783 18.0291 10.9741C18.17 10.8647 18.3056 10.7499 18.4358 10.629C18.8155 10.2762 19.149 9.87495 19.4263 9.43437C19.4271 9.43283 19.4278 9.43206 19.4286 9.43052C19.5965 9.16324 19.7444 8.88134 19.8692 8.58787C20.1704 7.87925 20.3383 7.10053 20.3413 6.28254C20.3413 6.28254 20.3413 6.28177 20.3413 6.28099C20.3413 6.27329 20.3413 6.26559 20.3413 6.25789C20.3413 5.44066 20.1773 4.66271 19.88 3.95332C19.7806 3.71532 19.6658 3.48501 19.5372 3.26395C19.5372 3.26241 19.5357 3.26164 19.5357 3.26087C18.9572 2.26726 18.0999 1.45696 17.0717 0.935508C17.0678 0.933197 17.0632 0.930887 17.0593 0.929346C16.2637 0.52805 14.9188 0.300058 13.9684 0.293896C13.9553 0.293896 14.3904 0.293896 14.3774 0.293896C14.3643 0.293896 14.3519 0.293896 14.3388 0.293896H1.77695C0.795661 0.293896 0 1.08956 0 2.07085V14.7413C0 15.1519 0.0415931 15.5532 0.120928 15.9406C0.120928 15.9414 0.120928 15.9422 0.120928 15.9437C0.268815 16.6662 0.547643 17.3417 0.931224 17.9432C0.931224 17.9448 0.932764 17.9456 0.933534 17.9471C1.57592 18.9538 2.51253 19.7549 3.62168 20.2286C3.62553 20.2301 3.62938 20.2316 3.63324 20.2332C3.64171 20.237 3.65095 20.2409 3.65942 20.2447C4.23017 20.4843 4.8456 20.6368 5.49029 20.6876C5.64665 20.6999 5.80378 20.7061 5.96322 20.7061C6.78584 20.7061 7.56918 20.5397 8.28165 20.2386C8.78462 20.026 9.25293 19.7464 9.67502 19.4106C9.67579 19.4106 9.67656 19.4098 9.67733 19.409C9.68503 19.4029 9.69351 19.3967 9.70121 19.3898C9.70352 19.3882 9.70583 19.3859 9.70814 19.3844C10.2542 18.943 10.721 18.4077 11.083 17.8023C11.596 16.945 11.9003 15.9491 11.9249 14.8838V14.8815C11.9257 14.8353 11.9264 14.7891 11.9264 14.7429C11.9264 14.6967 11.9264 14.6505 11.9249 14.6042V12.4745C11.9249 12.3829 12.0358 12.3366 12.1005 12.4013L17.5015 17.8023L18.7654 19.0663C19.3485 19.6493 20.3444 19.2365 20.3444 18.4123V16.1301C20.3444 15.708 20.1765 15.3029 19.8777 15.004L18.026 13.1523L18.0291 13.1508ZM14.375 8.58787H8.68603C8.46343 8.58787 8.28242 8.76811 8.28242 8.99148V14.7914V14.7922C8.20925 16.4189 6.57248 17.4726 5.06974 16.8433C4.2579 16.5037 3.70872 15.7203 3.65942 14.8338V4.30917C3.65942 4.11507 3.81732 3.95717 4.01143 3.95717L8.87474 3.95409C8.87474 3.95409 8.87474 3.95563 8.87397 3.9564C9.89454 3.9564 10.9482 3.9564 11.9264 3.9564C12.8399 3.9564 13.688 3.9564 14.3812 3.95794C15.6359 3.95948 16.6711 5.00393 16.6758 6.25481C16.6804 7.53726 15.6629 8.57016 14.375 8.58864V8.58787Z" fill="#F56630"/>
</svg>
